<svg xmlns="http://www.w3.org/2000/svg" data-name="Layer 1" viewBox="0 0 128 128"><path d="M96 69.38c-1.49-.71-3.28-1.52-5.05-2.25-1.16 1.84-4.58 7.52-5.27 9.52a9.29 9.29 0 0 0-.5 3.25 7.61 7.61 0 0 1-.11 1.39 4.89 4.89 0 0 1-3.42 3.78c-.79.24-2.4.52-4.25.85a42.19 42.19 0 0 0-5.77 1.23 8.84 8.84 0 0 1-2.31 2.38 3.9 3.9 0 0 1-1.19.57c0 1.58-.59 3.8-2.51 4.21a3.09 3.09 0 0 1-2.62-.79 4.15 4.15 0 0 1-2.36 2.63 3.56 3.56 0 0 1-2.72-.3c-.53 1.24-1.58 2.92-3.38 3a3.41 3.41 0 0 1-2.62-1.44 5.93 5.93 0 0 1-4.84 2.83h-.35a3.37 3.37 0 0 1-3.3-3.27 2.31 2.31 0 0 1-.68.25 2.73 2.73 0 0 1-1.36-.22 3.21 3.21 0 0 1 0 1.39c-.52 1.59-4.62 1.38-7.25.85a6.1 6.1 0 0 1-4.24-2.89c-1.24 1.08-1.78 1.08-2 1.08-.42 0-1.11 0-2.76-3.16-.95.07-2.66.17-3.31.13a2.12 2.12 0 0 1-1.72-1.55 6.08 6.08 0 0 1-1.72-.13 2.31 2.31 0 0 1-.56-.2c1.33 3.27 3 6.31 3.7 7.89a13.35 13.35 0 0 0 8.34 7.14c5.41 1.44 20 1.77 25 1.61a21.4 21.4 0 0 0 8-1.82 22.35 22.35 0 0 1 6.26-1.34c2.65-.2 9.72-.19 11.32-.25 3.61-.14 7.28-5.69 9.68-10.07a14.57 14.57 0 0 0 2.15-8.89c-.16-2.53-.36-11.09.5-12.83A27.19 27.19 0 0 1 96 69.38zm-77.59 15.3A27.7 27.7 0 0 0 18 89.8c.05.22.25 1 .8 1.13a4.48 4.48 0 0 0 1 .09 26.31 26.31 0 0 1-.12-5.86c-.48-.16-.88-.31-1.27-.48zM16 83.35a14.58 14.58 0 0 0 .48 4.94A32.28 32.28 0 0 1 17 84z"/><path d="M44.09 83.56a4.37 4.37 0 0 0-2.64.9c-1.06 3.58.36 9.38.65 10.51a25 25 0 0 0 2.44-3.39 30 30 0 0 0 2.16-6.48l-.23-.2a4 4 0 0 0-2.38-1.34zm6.82 6.73a1.18 1.18 0 0 0 .31-.57l.91-4.64c-.3-1.1-3.08-.65-3.41-.48a44.55 44.55 0 0 1-1.51 5.62 12 12 0 0 0 3.7.07zm-4.84 2.37a11.39 11.39 0 0 0-.8 2.66c-.08 1.93.14 2.89 1.62 3 4.06.25 4.38-6.18 4.38-6.18a6.86 6.86 0 0 1-1.65.17 21.06 21.06 0 0 1-3.16-.31 6.19 6.19 0 0 1-.39.66zM39.67 83c-1.47.58-8.36 12.07-8.36 12.07a4.18 4.18 0 0 0 3.16 2.33 12.21 12.21 0 0 0 5.09.17c1.18-4.24-1.19-7.44.11-14.57zm-13.81 4.18a16.14 16.14 0 0 0 .7 5.82A10.16 10.16 0 0 0 28 95.46c2.07-1.1 5.44-7.06 5.44-7.06a25.37 25.37 0 0 1-7.3-1.11zm-2.48-.78-2-.6a30.82 30.82 0 0 0 .28 5.89 2.46 2.46 0 0 0 .33.88c.46 0 1.51 0 2.48-.09a17.48 17.48 0 0 1-.44-5.88zm-6.6-4.78A13 13 0 0 0 19 82.79s1.81-2.9 2.8-4.54a1.92 1.92 0 0 0-.35-.36 5.28 5.28 0 0 0-2.91-.72 14.56 14.56 0 0 0-1.76 4.45zM23.49 79c-.82 1.37-2.34 3.81-2.79 4.53.67.24 1.35.46 2 .67a23.22 23.22 0 0 1 3.38-5.33.93.93 0 0 0-.33-.19 4.64 4.64 0 0 0-2.26.32zm6.51.7a2.67 2.67 0 0 0-2.46.47 18.34 18.34 0 0 0-3 4.61c.84.25 2.79.92 3 1l3.52-5.18c.18-.25-.87-.84-1.06-.9zm4.21.49c-.84.37-4.67 6-4.67 6a38.47 38.47 0 0 0 5.13.36l2-3c.41-.58-.2-2.37-.47-2.61a4.07 4.07 0 0 0-1.99-.75zm29.17 3.65.07 3.34c.88-.16 1.71-.29 2.42-.36.12-1.22.22-2.52.21-3.15a13.91 13.91 0 0 0-2.7.17zm13.73.23c1.73-.3 3.36-.59 4-.8a3 3 0 0 0 2.11-2.39 5.54 5.54 0 0 0 .07-1A11.08 11.08 0 0 1 84 76c.74-2.15 3.94-7.46 5.27-9.61a15.66 15.66 0 0 0-4.86-1.34 9.24 9.24 0 0 0-5.52 2.63 3.25 3.25 0 0 0-.15.45 7.87 7.87 0 0 1-1.83 3.3 15.37 15.37 0 0 1-2.28 1.88c-1.67 1.2-2.7 2-2.7 3.59 0 .77.06 2.33.11 3.94.07 2 .11 3.31.12 4.18 1.01-.24 2.6-.53 4.95-.95zM52.77 95.3c.09.12.53 1.57 1.75 1.62 2.75.25 2-6.44 2-6.44-.53 0-1.81.13-3.18.24zM36 55.1c-.35.18-.87 1.27-1.37 5.48a15.9 15.9 0 0 1-1.38 4.61 12 12 0 0 0-.63 1.66 2.85 2.85 0 0 0 1.61 3.38 2.61 2.61 0 0 0 1.78.21c-1.18-.59-.94-1.84-.64-3.28.08-.4.18-.87.28-1.42a6.68 6.68 0 0 1 .88-2.49c.25-.44.35-.62.21-1.63a9.47 9.47 0 0 1 1.46-5.82c.12-.24.24-.46.35-.69a1.87 1.87 0 0 1 .35-.46 5.46 5.46 0 0 0-2.9.45zm78.08-17.17a4.76 4.76 0 0 0-1.79-3.7c-.94-.69-7.07-5.93-8.14-7.81-2.57-4.49-8.17-7-13-7.53a61.74 61.74 0 0 0-14.92 1 45.15 45.15 0 0 0-7.89 4l-.25.13c3.64 0 7.15.43 9.65 1.88 3.25 1.88 6.37 4.82 7.23 13.54a56.12 56.12 0 0 1-.1 9.56c-.25 3.74-.45 6.7.78 8.22.44.54 2 1.08 3.78 1.7A44.31 44.31 0 0 1 101.76 65c.58-.2 1.2-.37 2-.56 2.4-.61 5.6-5.52 6.52-8.5.38-1.28.72-5 1.15-6.57.53-1.88 1.6-4.55 1.85-5.38a23.62 23.62 0 0 0 .8-6.06z"/><path d="M88.82 60.71c-2.32-.8-3.85-1.33-4.62-2.29-1.7-2.09-1.48-5.37-1.2-9.53a54.61 54.61 0 0 0 .07-9.27c-.73-7.44-3-10.22-6.3-12.1-3.47-2-9.42-1.81-14.63-1.29a26.8 26.8 0 0 1-5.56 1.16c-2.07 0-5.3-1.55-6.46-2.29a8.19 8.19 0 0 0-7.81-1c-1.32.45-3.09 1.25-3.67 2.4a48 48 0 0 0-2.89 9.19 20.66 20.66 0 0 1-1 4.72c-.43 1.17-2.24 6.76-2.74 7.64s-2.01 2.85-3.8 5.58a7.66 7.66 0 0 0-1.15 3.84c.11 1.21 2.2 3.55 1.93 6.78-.2 2.26-2.9 4-5.91 7a27.2 27.2 0 0 0-3.42 4.13 6.68 6.68 0 0 1 3 1.1 4.16 4.16 0 0 1 .66.69 5.47 5.47 0 0 1 3.07-.19 2.63 2.63 0 0 1 1.51 1.2 9.64 9.64 0 0 1 2.28-.31 4 4 0 0 1 2.22 1.4 4 4 0 0 1 1.44-.88c.87-.2 2.61.6 3.32 1 .22.1.79.39 1.3 2.31a2.18 2.18 0 0 1 2.09-.7c.2.08.71.27.94 1.37a5.53 5.53 0 0 1 2.77-.6 5.3 5.3 0 0 1 3.19 1.52 6 6 0 0 1 3.65-.69 3.89 3.89 0 0 1 2.23 1 3.4 3.4 0 0 1 2.19-1.09 2 2 0 0 1 1.85.88 4.51 4.51 0 0 1 .66-.76c.57-.51 1.53-.5 2.76-.47a12.52 12.52 0 0 0 1.54 0c3.55-.49 5.15-.5 5.54.68.24.71-.68 3.92.08 5.45a6.53 6.53 0 0 0 2.32-2.33c0-.33-.06-3-.13-5 0-1.64-.1-3.22-.1-4 0-2.61 1.85-3.94 3.48-5.11a13.37 13.37 0 0 0 2-1.64 6.09 6.09 0 0 0 1.42-2.57 4.14 4.14 0 0 1 .34-.88 10.67 10.67 0 0 1 7-3.52c2.74-.23 11.72 4 13.17 4.72.28-.27.55-.53.82-.75a14.75 14.75 0 0 1 1.65-1.24 43.32 43.32 0 0 0-11.1-5.26ZM41.38 69.6l-.36.23c-2.63 1.66-4.09 2.58-5.62 2.58a5 5 0 0 1-1.95-.41 4.75 4.75 0 0 1-2.7-5.56 13.87 13.87 0 0 1 .73-2 14 14 0 0 0 1.24-4.09c.46-4 1-6.23 2.39-6.93 1.48-.75 4.08-1.27 8 .47 3.59 1.58 5.17 3 5.44 4.87s-1.16 7.04-7.17 10.84Zm11.88-35.48-.1 1c-.47 4.37-1 9.8-3.45 11.42s-6.14 2-8.32 2H41c-3.08-.09-4.69-2.19-4.69-4.22 0-1.31.85-2.65 1.84-4.2a27.47 27.47 0 0 0 1.7-3 19.56 19.56 0 0 0 1.06-2.9 12.74 12.74 0 0 1 1.56-3.65c1.15-1.87 4.35-3.33 6.73-2.43l.46.17c1.6.56 4.09 1.45 3.6 5.81Zm24 8.08c-.91 2.49-3.72 8-6.59 9.36a11.08 11.08 0 0 1-4.6.89 14.81 14.81 0 0 1-7.94-2.19c-1.76-1.22-1.76-4.16-1.75-7v-1a17.62 17.62 0 0 1 1.16-5.09 1 1 0 0 1 1.22-.54.94.94 0 0 1 .53 1.22 15.73 15.73 0 0 0-1 4.4v1c0 2 0 4.79 1 5.45a9.74 9.74 0 0 0 2.4 1.13 29 29 0 0 1-.53-7.76c.25-2 4.06-8.62 6.37-11a11.14 11.14 0 0 0-4.73 2 .94.94 0 0 1-1.14-1.49c1.24-.94 4-2.43 6.17-2.43a9.49 9.49 0 0 1 7.43 3.88c2.29 3.13 3.04 6.38 2.01 9.17Z"/><path d="M44 31.53a10.77 10.77 0 0 0-1.35 3.19 20.5 20.5 0 0 1-1.16 3.17 28.27 28.27 0 0 1-1.82 3.16 8.29 8.29 0 0 0-1.54 3.2c0 1.33 1.18 2.3 2.87 2.34h.39a8.87 8.87 0 0 1 .43-4.59A19.15 19.15 0 0 1 44 37.79a24 24 0 0 0 2-3.72 14.11 14.11 0 0 0 .66-3.07c.06-.47.11-.85.17-1.19A4.59 4.59 0 0 0 44 31.53zm12.57 53.68c0-.39-.72-.82-1-.84s-1.52.51-1.61 1l-.42 3.45 3-.22zm1.78 8.67a1.94 1.94 0 0 0 1.78.47c.72-.21 1.32-1.81 1.52-2.87v-2c-1.06.22-2.08.45-2.9.63l-.32.07zM61.51 84c0-.21-1.6-.28-2.36.06a1.28 1.28 0 0 0-.7 1v3.13l3.17-.68zm4.55 4.68c-.74.08-1.64.22-2.58.4l.05 2.21c.32.49 1 1.33 1.74 1.18.96-.2 1.73-2.71.79-3.79z"/></svg>